<svg xmlns="http://www.w3.org/2000/svg" xmlns:xlink="http://www.w3.org/1999/xlink" width="224" height="96" viewBox="0 0 224 96">
    <defs>
        <path id="a" d="M1 0h224v96H1z"/>
        <path id="c" d="M.491.219h5.643V6.8H.491z"/>
        <path id="e" d="M.305.506h5.719v9.127H.304z"/>
        <path id="g" d="M.414.506h5.719v9.127H.413z"/>
        <path id="i" d="M.51.506h5.72v9.127H.51z"/>
        <path id="k" d="M0 48.785h169.99V0H0z"/>
    </defs>
    <g fill="none" fill-rule="evenodd" transform="translate(-1)">
        <mask id="b" fill="#fff">
            <use xlink:href="#a"/>
        </mask>
        <g mask="url(#b)">
            <g transform="translate(22 25)">
                <path fill="#D73F30" d="M62.3 24.605c-3.023-.105-5.38-2.597-5.273-5.616a5.43 5.43 0 0 1 5.625-5.265 5.436 5.436 0 0 1 5.273 5.44c-.035 3.055-2.53 5.477-5.625 5.441m1.055-16.707c-2.32 0-4.64.666-6.575 1.93V2.492c0-1.158-.949-2.141-2.144-2.106h-3.375a.352.352 0 0 0-.352.35l.035 18.534v10.355h3.2a2.15 2.15 0 0 0 2.11-1.79c2.073 1.474 4.605 2.211 7.136 2.176 6.47 0 10.9-4.844 10.9-10.987 0-6.142-4.43-11.126-10.935-11.126M167.845.772h-3.375a.352.352 0 0 0-.352.351l.035 28.537c0 .21.176.35.352.35h5.133c.21 0 .351-.175.351-.35V2.913c0-1.158-.949-2.14-2.144-2.14M94.575 8.88h-4.007a.277.277 0 0 0-.282.281v11.548c.035 2.317-1.758 4.248-4.043 4.388-2.356.105-4.36-1.685-4.465-4.037V10.53c0-.878-.703-1.58-1.617-1.58h-4.009a.277.277 0 0 0-.28.281V20.92c0 5.44 4.218 9.688 9.387 9.688h1.512c5.168 0 9.351-4.283 9.351-9.723v-10.39c.07-.912-.667-1.615-1.547-1.615M157.895 0a3.224 3.224 0 0 0-3.234 3.23 3.223 3.223 0 0 0 3.234 3.228 3.223 3.223 0 0 0 3.235-3.229c0-1.79-1.442-3.229-3.235-3.229M22.501 21.973l-8.333 1.474 2.497-6.88 8.332-1.474-2.496 6.88zm10.864-8.319c.809-2.177-.316-4.633-2.53-5.405a4.182 4.182 0 0 0-2.18-.176L2.495 12.636 0 19.516l8.333-1.474-2.497 6.88c-.808 2.176.316 4.633 2.532 5.405a4.179 4.179 0 0 0 2.18.175l26.122-4.598 2.496-6.88-8.332 1.474 2.53-6.844zM105.474 24.746v-.07c-.07 0-.14-.07-.14-.141 0-.035 0-.035.035-.07l8.966-15.62c.034-.07 0-.14-.036-.175H98.337a.277.277 0 0 0-.281.28v4.81c0 .14.106.28.281.28h5.872c.07 0 .14.07.14.14 0 .035 0 .035-.035.07L97.53 26.08c-.738 1.263-.282 2.913.984 3.65.422.246.88.35 1.336.35h11.883c.106 0 .176-.034.247-.14l2.988-5.194h-9.493zM158.142 8.74h-2.637a.465.465 0 0 0-.457.456l.035 20.464c0 .175.14.35.352.35h5.168c.175 0 .35-.14.35-.35l-.034-18.147c0-1.51-1.231-2.773-2.777-2.773M152.903 8.88a1.243 1.243 0 0 0-.598-.14h-3.832c-.105 0-.21.07-.246.176l-4.078 11.582a14.37 14.37 0 0 0-.985 3.651s-.07-1.334-.984-3.65l-3.657-10.39a2.128 2.128 0 0 0-2.004-1.37h-4.676c-.07 0-.14.071-.14.141v.036l8.226 20.955c.036.105.14.175.246.175h6.048c.105 0 .21-.07.246-.175l7.348-18.92c.316-.807-.105-1.755-.914-2.07"/>
                <path fill="#D73F30" d="M124.073 24.57c0-.035.035-.07.035-.07l6.786-11.83c.738-1.263.28-2.912-.984-3.649a2.624 2.624 0 0 0-1.337-.351H116.62c-.106 0-.176.035-.246.14l-2.884 5.02c-.035.07 0 .14.036.175.035 0 .035.035.07.035h9.212c.07 0 .14.07.14.14 0 .036 0 .036-.035.07l-8.895 15.585c-.036.07 0 .14.035.176.035 0 .035.035.07.035h14.134c.105 0 .176-.035.246-.14l2.989-5.195h-7.278c-.07 0-.141-.07-.141-.14M52.58 44.115H54c.23 0 .433-.03.607-.09.174-.061.319-.147.435-.258.115-.112.201-.245.26-.4a1.46 1.46 0 0 0 .088-.518c0-.403-.114-.72-.343-.95-.229-.231-.58-.347-1.053-.347H52.58v2.563zm1.402 1.426H52.58v3.126h-1.759v-8.54h3.173c.493 0 .935.056 1.326.167.39.111.721.276.991.493.27.217.478.485.622.806.145.32.217.693.217 1.115 0 .313-.035.593-.105.842-.071.247-.173.469-.306.662a2.221 2.221 0 0 1-.48.507c-.188.145-.4.27-.634.376l1.848 3.49v.082h-1.89l-1.6-3.126zM60.803 43.576a1.05 1.05 0 0 0-.842.367c-.1.115-.18.253-.243.413-.063.16-.108.338-.135.534h2.358v-.135a1.716 1.716 0 0 0-.073-.47.94.94 0 0 0-.557-.622 1.34 1.34 0 0 0-.508-.087m.194 5.209c-.493 0-.934-.08-1.323-.24-.39-.161-.72-.38-.991-.658a2.802 2.802 0 0 1-.622-.976 3.325 3.325 0 0 1-.215-1.2v-.229c0-.48.07-.922.209-1.323.139-.4.336-.745.592-1.035.256-.29.567-.515.933-.677a2.996 2.996 0 0 1 1.229-.244c.457 0 .86.076 1.209.226.348.15.64.362.876.634.237.271.415.599.534.982.12.384.179.81.179 1.279v.721h-4.042c.027.208.083.396.167.564a1.416 1.416 0 0 0 .783.71c.177.066.374.099.593.099.309 0 .595-.057.856-.172a1.73 1.73 0 0 0 .675-.538l.833.933a2.578 2.578 0 0 1-.921.789c-.207.108-.44.193-.7.258a3.51 3.51 0 0 1-.854.097M70.029 46.362l.833-4.041h1.636l-1.619 6.346h-1.42l-1.202-3.994-1.202 3.994H65.64l-1.619-6.346h1.637l.827 4.035 1.162-4.035h1.225z"/>
                <g transform="translate(72.533 41.985)">
                    <mask id="d" fill="#fff">
                        <use xlink:href="#c"/>
                    </mask>
                    <path fill="#D73F30" d="M3.02 5.504a1.443 1.443 0 0 0 .733-.19c.098-.058.183-.123.255-.198.072-.073.13-.15.173-.228V3.797h-.698c-.223 0-.417.024-.581.073-.164.05-.299.117-.405.205a.83.83 0 0 0-.234.311.985.985 0 0 0-.077.39c0 .212.075.385.224.522.148.138.351.206.61.206zm1.402 1.179a1.86 1.86 0 0 1-.17-.57 2.231 2.231 0 0 1-.649.488c-.26.133-.577.2-.953.2a2.54 2.54 0 0 1-.854-.141 2.117 2.117 0 0 1-.686-.394A1.775 1.775 0 0 1 .491 4.9c0-.333.062-.628.185-.886s.308-.477.554-.657c.247-.18.552-.317.918-.41.366-.095.79-.142 1.276-.142h.757v-.363c0-.294-.075-.528-.226-.705-.15-.175-.388-.263-.712-.263-.286 0-.51.069-.672.205a.699.699 0 0 0-.244.563H.632c0-.273.063-.533.19-.78.128-.246.309-.461.543-.645a2.73 2.73 0 0 1 .85-.437C2.549.273 2.92.219 3.33.219c.368 0 .708.047 1.022.14.312.094.582.234.808.42.227.186.404.418.532.698.126.28.19.605.19.976V5.14c0 .18.006.341.018.484.012.143.027.272.047.387a1.915 1.915 0 0 0 .187.572v.1H4.422z" mask="url(#d)"/>
                </g>
                <path fill="#D73F30" d="M83.224 43.91a6.313 6.313 0 0 0-.301-.032 4.023 4.023 0 0 0-.308-.014c-.333 0-.602.055-.807.167a1.028 1.028 0 0 0-.455.483v4.154h-1.695V42.32h1.601l.047.756a1.91 1.91 0 0 1 .593-.642c.234-.155.508-.232.82-.232a1.873 1.873 0 0 1 .529.077l-.024 1.63z"/>
                <g transform="translate(83.3 39.151)">
                    <mask id="f" fill="#fff">
                        <use xlink:href="#e"/>
                    </mask>
                    <path fill="#D73F30" d="M2 6.419c0 .258.021.498.064.721.043.223.112.418.208.584.096.166.221.297.376.393.154.096.343.144.566.144.273 0 .501-.059.683-.176.182-.117.324-.28.426-.487V5.093a1.163 1.163 0 0 0-.426-.49 1.233 1.233 0 0 0-.672-.173c-.222 0-.412.048-.569.144a1.085 1.085 0 0 0-.378.396 1.96 1.96 0 0 0-.211.593c-.045.227-.068.47-.068.733v.123zM.304 6.296c0-.481.054-.922.167-1.32.11-.399.272-.741.483-1.026.211-.286.472-.507.78-.663.31-.157.661-.235 1.056-.235.325 0 .613.06.866.182.252.121.474.291.666.51V.506h1.7v9.01h-1.53l-.082-.675c-.2.25-.433.446-.7.585a1.99 1.99 0 0 1-.931.208c-.391 0-.74-.082-1.047-.244a2.283 2.283 0 0 1-.778-.672 3.12 3.12 0 0 1-.483-1.017 4.658 4.658 0 0 1-.167-1.282v-.123z" mask="url(#f)"/>
                </g>
                <path fill="#D73F30" d="M93.305 43.576a1.05 1.05 0 0 0-.842.367c-.1.115-.18.253-.243.413-.063.16-.108.338-.135.534h2.358v-.135a1.716 1.716 0 0 0-.073-.47.94.94 0 0 0-.557-.622 1.34 1.34 0 0 0-.508-.087m.193 5.209c-.492 0-.933-.08-1.322-.24-.39-.161-.72-.38-.991-.658a2.802 2.802 0 0 1-.622-.976 3.325 3.325 0 0 1-.215-1.2v-.229c0-.48.07-.922.209-1.323.139-.4.336-.745.592-1.035.256-.29.567-.515.933-.677a2.996 2.996 0 0 1 1.229-.244c.457 0 .86.076 1.209.226.348.15.64.362.876.634.237.271.414.599.534.982.12.384.179.81.179 1.279v.721h-4.042c.027.208.083.396.167.564a1.416 1.416 0 0 0 .783.71c.177.066.374.099.593.099.309 0 .595-.057.856-.172a1.73 1.73 0 0 0 .675-.538l.833.933a2.578 2.578 0 0 1-.921.789c-.207.108-.44.193-.7.258a3.51 3.51 0 0 1-.855.097"/>
                <g transform="translate(96.333 39.151)">
                    <mask id="h" fill="#fff">
                        <use xlink:href="#g"/>
                    </mask>
                    <path fill="#D73F30" d="M2.108 6.419c0 .258.022.498.065.721.043.223.112.418.208.584.096.166.221.297.376.393.154.096.343.144.566.144.274 0 .501-.059.683-.176.182-.117.324-.28.426-.487V5.093a1.163 1.163 0 0 0-.426-.49 1.233 1.233 0 0 0-.672-.173c-.222 0-.412.048-.569.144a1.085 1.085 0 0 0-.378.396 1.96 1.96 0 0 0-.211.593c-.045.227-.068.47-.068.733v.123zM.414 6.296c0-.481.055-.922.167-1.32.11-.399.272-.741.483-1.026.211-.286.472-.507.78-.663.31-.157.661-.235 1.056-.235.325 0 .613.06.866.182.252.121.474.291.666.51V.506h1.7v9.01h-1.53l-.082-.675c-.2.25-.433.446-.7.585a1.99 1.99 0 0 1-.931.208c-.391 0-.74-.082-1.047-.244a2.283 2.283 0 0 1-.778-.672 3.12 3.12 0 0 1-.483-1.017 4.658 4.658 0 0 1-.167-1.282v-.123z" mask="url(#h)"/>
                </g>
                <path fill="#D73F30" d="M108.974 45.482h2.136l-1.074-3.197-1.062 3.197zm2.61 1.426h-3.085l-.587 1.76h-1.871l3.18-8.541h1.63l3.197 8.54h-1.871l-.593-1.76z"/>
                <g transform="translate(113.9 39.151)">
                    <mask id="j" fill="#fff">
                        <use xlink:href="#i"/>
                    </mask>
                    <path fill="#D73F30" d="M2.205 6.419c0 .258.022.498.065.721.042.223.112.418.208.584.096.166.22.297.376.393.154.096.342.144.566.144.273 0 .501-.059.683-.176.182-.117.324-.28.426-.487V5.093a1.163 1.163 0 0 0-.426-.49 1.233 1.233 0 0 0-.672-.173c-.222 0-.412.048-.569.144a1.085 1.085 0 0 0-.378.396 1.96 1.96 0 0 0-.211.593c-.045.227-.068.47-.068.733v.123zM.51 6.296c0-.481.055-.922.168-1.32.11-.399.272-.741.483-1.026.211-.286.471-.507.78-.663.31-.157.661-.235 1.056-.235.325 0 .613.06.866.182.251.121.474.291.666.51V.506h1.7v9.01H4.7l-.083-.675c-.2.25-.432.446-.698.585a1.99 1.99 0 0 1-.932.208c-.391 0-.741-.082-1.048-.244a2.283 2.283 0 0 1-.777-.672 3.12 3.12 0 0 1-.483-1.017A4.658 4.658 0 0 1 .51 6.419v-.123z" mask="url(#j)"/>
                </g>
                <path fill="#D73F30" d="M126.186 44.233h1.572c.25 0 .467-.032.648-.094.182-.062.33-.15.446-.261.115-.111.2-.245.255-.402a1.714 1.714 0 0 0 0-1.041 1.26 1.26 0 0 0-.255-.452 1.24 1.24 0 0 0-.446-.313 1.631 1.631 0 0 0-.648-.118h-1.572v2.68zm0 1.425v3.01h-1.76v-8.541h3.332c.504 0 .955.07 1.352.21.396.141.733.338 1.008.59.277.252.487.552.632.898a2.9 2.9 0 0 1 .217 1.13c0 .414-.073.787-.217 1.12a2.311 2.311 0 0 1-.632.85 2.906 2.906 0 0 1-1.008.543 4.45 4.45 0 0 1-1.352.19h-1.572z"/>
                <mask id="l" fill="#fff">
                    <use xlink:href="#k"/>
                </mask>
                <path fill="#D73F30" d="M131.852 48.667h1.701v-9.01h-1.701zM137.164 47.488a1.443 1.443 0 0 0 .734-.19c.098-.057.183-.123.255-.197.072-.073.13-.15.173-.229v-1.09h-.698c-.223 0-.417.024-.581.073-.164.049-.299.117-.405.205a.83.83 0 0 0-.234.31.985.985 0 0 0-.077.391c0 .212.075.385.224.522.148.137.351.205.61.205zm1.403 1.18a1.86 1.86 0 0 1-.17-.57 2.231 2.231 0 0 1-.649.488c-.26.132-.577.199-.953.199a2.54 2.54 0 0 1-.854-.14 2.117 2.117 0 0 1-.686-.394 1.775 1.775 0 0 1-.619-1.366c0-.333.062-.629.185-.887.123-.257.308-.477.554-.656.247-.18.552-.318.918-.411.366-.094.79-.141 1.276-.141h.757v-.363c0-.294-.075-.529-.226-.705-.15-.175-.388-.263-.712-.263-.286 0-.51.068-.672.205a.698.698 0 0 0-.244.563h-1.695c0-.274.063-.534.19-.78.128-.246.309-.461.543-.646a2.73 2.73 0 0 1 .85-.437c.333-.107.705-.16 1.115-.16.368 0 .708.047 1.022.14.312.094.582.234.808.42.227.185.404.418.532.698.126.28.19.605.19.976v2.686c0 .18.006.342.018.485.012.143.027.271.047.387a1.915 1.915 0 0 0 .187.572v.1h-1.712zM143.299 40.76v1.56h1.085v1.244h-1.085v3.168c0 .132.013.242.04.328a.445.445 0 0 0 .124.203c.055.049.122.082.202.1.08.017.175.025.285.025a2.404 2.404 0 0 0 .499-.04v1.284c-.142.043-.295.08-.46.109-.167.03-.356.044-.567.044a2.53 2.53 0 0 1-.75-.103 1.43 1.43 0 0 1-.573-.326 1.455 1.455 0 0 1-.367-.58 2.551 2.551 0 0 1-.128-.862v-3.35h-.927v-1.243h.927v-1.56h1.695zM145.732 48.667v-5.103h-.945v-1.243h.945v-.552c0-.36.054-.678.161-.956.108-.278.262-.511.464-.701a1.98 1.98 0 0 1 .733-.43c.287-.099.611-.147.97-.147.153 0 .3.01.444.034.142.024.282.051.419.083l-.017 1.313a2.201 2.201 0 0 0-.517-.052c-.305 0-.54.073-.707.22-.166.146-.249.359-.249.636v.552h1.261v1.243h-1.261v5.103h-1.701zM150.945 45.559c0 .257.023.5.07.727.047.227.122.423.226.59.103.166.238.298.405.395.166.098.37.147.612.147.235 0 .435-.049.602-.147.166-.097.302-.23.408-.395a1.77 1.77 0 0 0 .228-.59c.047-.226.07-.47.07-.727v-.124c0-.25-.023-.487-.07-.713a1.838 1.838 0 0 0-.228-.592 1.202 1.202 0 0 0-.41-.404c-.169-.1-.372-.15-.611-.15-.235 0-.435.05-.601.15-.167.1-.302.235-.405.404-.104.17-.179.368-.226.592-.047.226-.07.463-.07.713v.124zm-1.695-.124c0-.46.066-.89.199-1.284a2.95 2.95 0 0 1 .58-1.024 2.68 2.68 0 0 1 .942-.677 3.135 3.135 0 0 1 1.276-.247c.48 0 .909.083 1.285.247.375.164.69.39.947.677.256.288.45.628.584 1.024.132.395.2.823.2 1.284v.124c0 .465-.068.894-.2 1.287a2.929 2.929 0 0 1-.584 1.02c-.256.288-.57.513-.942.676a3.169 3.169 0 0 1-1.279.243c-.48 0-.908-.081-1.28-.243a2.66 2.66 0 0 1-.945-.675 2.913 2.913 0 0 1-.584-1.02 4.006 4.006 0 0 1-.2-1.288v-.124zM159.813 43.91a6.313 6.313 0 0 0-.302-.032 4.023 4.023 0 0 0-.308-.014c-.333 0-.602.055-.806.167a1.028 1.028 0 0 0-.455.483v4.154h-1.695V42.32h1.6l.048.756a1.91 1.91 0 0 1 .592-.642c.235-.155.509-.232.821-.232a1.873 1.873 0 0 1 .529.077l-.024 1.63zM162.157 42.32l.054.71c.21-.258.468-.46.77-.607a2.39 2.39 0 0 1 1.054-.22c.379 0 .714.077 1.006.229.29.153.517.399.677.74.207-.302.468-.538.783-.71.315-.173.69-.259 1.123-.259.31 0 .59.043.843.13.251.086.467.224.645.416.178.192.314.44.41.748.096.307.144.683.144 1.129v4.041h-1.701v-4.041c0-.211-.023-.385-.068-.523a.737.737 0 0 0-.19-.319.667.667 0 0 0-.3-.158 1.644 1.644 0 0 0-.398-.044c-.262 0-.481.065-.658.196a1.212 1.212 0 0 0-.399.531c0 .02.002.04.004.065a.897.897 0 0 1 .003.064v4.23h-1.695v-4.03c0-.212-.022-.386-.065-.523a.75.75 0 0 0-.188-.322.673.673 0 0 0-.302-.164 1.567 1.567 0 0 0-.402-.047c-.25 0-.461.052-.633.158a1.138 1.138 0 0 0-.41.44v4.487h-1.696v-6.346h1.59z" mask="url(#l)"/>
            </g>
        </g>
    </g>
</svg>
