<svg xmlns="http://www.w3.org/2000/svg" width="220" height="60" viewBox="0 0 220 60">
    <g fill="none" fill-rule="evenodd">
        <path d="M0 0h220v60H0z"/>
        <path fill="#FFF" fill-rule="nonzero" d="M40.8 23.128h-4.896v-1.104c0-1.12-.264-2.088-.792-2.904-.528-.816-1.416-1.224-2.664-1.224-.672 0-1.216.128-1.632.384a3.219 3.219 0 0 0-1.008.96 4.06 4.06 0 0 0-.528 1.416 9.245 9.245 0 0 0-.144 1.656c0 .672.024 1.232.072 1.68.048.448.168.848.36 1.2.192.352.472.656.84.912s.872.512 1.512.768l3.744 1.488c1.088.416 1.968.904 2.64 1.464.672.56 1.2 1.208 1.584 1.944.352.768.592 1.64.72 2.616.128.976.192 2.088.192 3.336 0 1.44-.144 2.776-.432 4.008-.288 1.232-.752 2.28-1.392 3.144-.672.896-1.552 1.6-2.64 2.112s-2.416.768-3.984.768a8.715 8.715 0 0 1-3.312-.624A7.878 7.878 0 0 1 26.4 45.4a8.41 8.41 0 0 1-1.752-2.568c-.432-.976-.648-2.04-.648-3.192v-1.824h4.896v1.536a4 4 0 0 0 .792 2.424c.528.72 1.416 1.08 2.664 1.08.832 0 1.48-.12 1.944-.36.464-.24.824-.584 1.08-1.032.256-.448.408-.984.456-1.608.048-.624.072-1.32.072-2.088 0-.896-.032-1.632-.096-2.208-.064-.576-.192-1.04-.384-1.392a2.699 2.699 0 0 0-.888-.864 11.38 11.38 0 0 0-1.464-.72l-3.504-1.44c-2.112-.864-3.528-2.008-4.248-3.432-.72-1.424-1.08-3.208-1.08-5.352 0-1.28.176-2.496.528-3.648.352-1.152.88-2.144 1.584-2.976.672-.832 1.528-1.496 2.568-1.992S31.2 13 32.64 13c1.216 0 2.328.224 3.336.672a8.593 8.593 0 0 1 2.616 1.776c1.472 1.536 2.208 3.296 2.208 5.28v2.4zM63 37.72v2.112a7.61 7.61 0 0 1-.6 3 8.299 8.299 0 0 1-1.656 2.52 7.984 7.984 0 0 1-2.472 1.752 7.237 7.237 0 0 1-3.048.648 10.96 10.96 0 0 1-2.832-.384 6.7 6.7 0 0 1-2.592-1.344c-.768-.64-1.4-1.464-1.896-2.472s-.744-2.296-.744-3.864V20.872c0-1.12.192-2.16.576-3.12a7.343 7.343 0 0 1 1.632-2.496 7.587 7.587 0 0 1 2.52-1.656c.976-.4 2.056-.6 3.24-.6 2.304 0 4.176.752 5.616 2.256a8.015 8.015 0 0 1 1.656 2.616c.4 1.008.6 2.104.6 3.288v1.92h-4.896v-1.632c0-.96-.272-1.792-.816-2.496-.544-.704-1.28-1.056-2.208-1.056-1.216 0-2.024.376-2.424 1.128-.4.752-.6 1.704-.6 2.856v17.472c0 .992.216 1.824.648 2.496.432.672 1.208 1.008 2.328 1.008.32 0 .664-.056 1.032-.168a3.079 3.079 0 0 0 1.032-.552c.288-.256.528-.608.72-1.056.192-.448.288-1.008.288-1.68v-1.68H63zm6.984 9.744V13.288h4.896v14.64h6.048v-14.64h4.896v34.176h-4.896V32.248H74.88v15.216h-4.896zm23.448 0V13.288h14.592v4.608h-9.696v10.032h8.448v4.608h-8.448v10.032h9.696v4.896H93.432zm20.76 0V13.288h7.248c2.816 0 4.952.768 6.408 2.304 1.456 1.536 2.184 3.712 2.184 6.528v15.984c0 3.2-.776 5.56-2.328 7.08-1.552 1.52-3.784 2.28-6.696 2.28h-6.816zm4.896-29.568v24.96h2.256c1.376 0 2.352-.344 2.928-1.032.576-.688.864-1.768.864-3.24V22.12c0-1.344-.272-2.384-.816-3.12-.544-.736-1.536-1.104-2.976-1.104h-2.256zm34.392-4.608v26.496c0 1.12-.2 2.152-.6 3.096a7.886 7.886 0 0 1-1.704 2.52 8.145 8.145 0 0 1-2.544 1.728 7.642 7.642 0 0 1-3.072.624 7.474 7.474 0 0 1-3.048-.624 8.228 8.228 0 0 1-2.52-1.728 8.228 8.228 0 0 1-1.728-2.52c-.416-.944-.624-1.976-.624-3.096V13.288h4.896v26.016c0 1.216.288 2.112.864 2.688.576.576 1.296.864 2.16.864.864 0 1.584-.288 2.16-.864.576-.576.864-1.472.864-2.688V13.288h4.896zm7.608 34.176V13.288h4.896v29.28h9.696v4.896h-14.592zm20.76 0V13.288h14.592v4.608h-9.696v10.032h8.448v4.608h-8.448v10.032h9.696v4.896h-14.592z"/>
    </g>
</svg>
