<svg xmlns="http://www.w3.org/2000/svg" width="220" height="60" viewBox="0 0 220 60">
    <g fill="none" fill-rule="evenodd">
        <path d="M0 0h220v60H0z"/>
        <path fill="#FFF" fill-rule="nonzero" d="M80 46.464V12.288h14.592v4.608h-9.696v10.368h8.448v4.608h-8.448v14.592H80zm28.248-11.952l-2.4-12.384h-.096l-2.4 12.384h4.896zM96.152 46.464l7.632-34.176h4.08l7.632 34.176H110.6l-1.44-7.344h-6.672l-1.44 7.344h-4.896zm29.352-8.064c0 1.184.328 2.056.984 2.616.656.56 1.432.84 2.328.84.448 0 .8-.064 1.056-.192l-2.208-1.776 2.496-2.976 1.968 1.584V20.352c0-1.184-.328-2.056-.984-2.616-.656-.56-1.432-.84-2.328-.84-.896 0-1.672.28-2.328.84-.656.56-.984 1.432-.984 2.616V38.4zm-4.896-18.048c0-1.376.24-2.592.72-3.648s1.12-1.936 1.92-2.64a8.117 8.117 0 0 1 2.616-1.536 8.646 8.646 0 0 1 2.952-.528c.992 0 1.976.176 2.952.528a8.701 8.701 0 0 1 2.664 1.536c.768.704 1.392 1.584 1.872 2.64.48 1.056.72 2.272.72 3.648V38.4c0 1.344-.24 2.512-.72 3.504l3.024 2.448-2.496 2.976-2.88-2.352c-1.472 1.184-3.184 1.776-5.136 1.776a8.646 8.646 0 0 1-2.952-.528 7.702 7.702 0 0 1-2.616-1.584c-.8-.672-1.44-1.52-1.92-2.544s-.72-2.256-.72-3.696V20.352z"/>
    </g>
</svg>
