<svg xmlns="http://www.w3.org/2000/svg" width="20" height="20" viewBox="0 0 20 20">
    <g fill="none" fill-rule="evenodd">
        <path d="M0 0h20v20H0z"/>
        <path fill="#171B20" d="M8 13.846c0 .652.186 1.133.557 1.441.371.309.81.463 1.318.463.254 0 .453-.035.598-.106l-1.25-.978 1.413-1.64 1.114.873V6.404c0-.652-.186-1.133-.557-1.441A1.998 1.998 0 0 0 9.875 4.5c-.507 0-.947.154-1.318.463C8.186 5.27 8 5.752 8 6.403v7.443zM5.5 6.433c0-.73.128-1.376.385-1.936A4.093 4.093 0 0 1 6.91 3.095c.41-.356.876-.628 1.398-.815A4.645 4.645 0 0 1 9.885 2c.53 0 1.055.093 1.577.28.52.187.995.459 1.423.815.41.374.743.841 1 1.402.256.56.384 1.205.384 1.936v7.079c0 .713-.128 1.333-.384 1.86L15.5 16.67l-1.333 1.579-1.539-1.248c-.786.628-1.7.942-2.743.942-.53 0-1.056-.093-1.577-.28a4.12 4.12 0 0 1-1.398-.84 3.892 3.892 0 0 1-1.025-1.35c-.257-.544-.385-1.198-.385-1.962v-7.08z"/>
    </g>
</svg>
