<svg xmlns="http://www.w3.org/2000/svg" width="220" height="60" viewBox="0 0 220 60">
    <g fill="none" fill-rule="evenodd">
        <path d="M0 0h220v60H0z"/>
        <path fill="#FFF" fill-rule="nonzero" d="M68.096 35.512l-2.4-12.384H65.6l-2.4 12.384h4.896zM56 47.464l7.632-34.176h4.08l7.632 34.176h-4.896l-1.44-7.344h-6.672l-1.44 7.344H56zm24.744 0V13.288h7.152c1.568 0 2.904.24 4.008.72s2.008 1.12 2.712 1.92a7.17 7.17 0 0 1 1.512 2.76c.304 1.04.456 2.12.456 3.24v1.248c0 .928-.072 1.712-.216 2.352-.144.64-.36 1.2-.648 1.68-.544.896-1.376 1.664-2.496 2.304 1.152.544 2 1.344 2.544 2.4.544 1.056.816 2.496.816 4.32v1.92c0 3.008-.728 5.312-2.184 6.912-1.456 1.6-3.784 2.4-6.984 2.4h-6.672zm4.896-15.84v10.944h2.112c.992 0 1.768-.144 2.328-.432a2.98 2.98 0 0 0 1.272-1.2c.288-.512.464-1.12.528-1.824s.096-1.472.096-2.304c0-.864-.048-1.616-.144-2.256-.096-.64-.288-1.184-.576-1.632a2.763 2.763 0 0 0-1.296-.984c-.544-.208-1.264-.312-2.16-.312h-2.16zm0-13.728v9.408h2.208c1.632 0 2.728-.408 3.288-1.224.56-.816.84-2.008.84-3.576 0-1.536-.312-2.688-.936-3.456-.624-.768-1.752-1.152-3.384-1.152H85.64zm18.264 3.456c0-1.376.24-2.592.72-3.648s1.12-1.936 1.92-2.64a8.117 8.117 0 0 1 2.616-1.536 8.646 8.646 0 0 1 2.952-.528c.992 0 1.976.176 2.952.528a8.701 8.701 0 0 1 2.664 1.536c.768.704 1.392 1.584 1.872 2.64.48 1.056.72 2.272.72 3.648V39.4c0 1.44-.24 2.672-.72 3.696s-1.104 1.872-1.872 2.544a8.231 8.231 0 0 1-2.664 1.584 8.646 8.646 0 0 1-2.952.528 8.646 8.646 0 0 1-2.952-.528 7.702 7.702 0 0 1-2.616-1.584c-.8-.672-1.44-1.52-1.92-2.544s-.72-2.256-.72-3.696V21.352zM108.8 39.4c0 1.184.328 2.056.984 2.616.656.56 1.432.84 2.328.84.896 0 1.672-.28 2.328-.84.656-.56.984-1.432.984-2.616V21.352c0-1.184-.328-2.056-.984-2.616-.656-.56-1.432-.84-2.328-.84-.896 0-1.672.28-2.328.84-.656.56-.984 1.432-.984 2.616V39.4zm34.68-26.112v26.496c0 1.12-.2 2.152-.6 3.096a7.886 7.886 0 0 1-1.704 2.52 8.145 8.145 0 0 1-2.544 1.728 7.642 7.642 0 0 1-3.072.624 7.474 7.474 0 0 1-3.048-.624 8.228 8.228 0 0 1-2.52-1.728 8.228 8.228 0 0 1-1.728-2.52c-.416-.944-.624-1.976-.624-3.096V13.288h4.896v26.016c0 1.216.288 2.112.864 2.688.576.576 1.296.864 2.16.864.864 0 1.584-.288 2.16-.864.576-.576.864-1.472.864-2.688V13.288h4.896zm10.824 34.176V17.896h-5.664v-4.608h16.224v4.608H159.2v29.568h-4.896z"/>
    </g>
</svg>
